<svg width="17" height="22" viewBox="0 0 17 22" fill="none" xmlns="http://www.w3.org/2000/svg">
<path d="M8.26331 16.0847C8.79374 16.0847 9.30245 15.874 9.67752 15.4989C10.0526 15.1239 10.2633 14.6151 10.2633 14.0847C10.2633 12.9747 9.36331 12.0847 8.26331 12.0847C7.73287 12.0847 7.22417 12.2954 6.84909 12.6705C6.47402 13.0456 6.26331 13.5543 6.26331 14.0847C6.26331 14.6151 6.47402 15.1239 6.84909 15.4989C7.22417 15.874 7.73287 16.0847 8.26331 16.0847ZM14.2633 7.08472C14.7937 7.08472 15.3024 7.29543 15.6775 7.6705C16.0526 8.04558 16.2633 8.55428 16.2633 9.08472V19.0847C16.2633 19.6151 16.0526 20.1239 15.6775 20.4989C15.3024 20.874 14.7937 21.0847 14.2633 21.0847H2.26331C1.73287 21.0847 1.22416 20.874 0.849092 20.4989C0.474019 20.1239 0.263306 19.6151 0.263306 19.0847V9.08472C0.263306 7.97472 1.16331 7.08472 2.26331 7.08472H3.26331V5.08472C3.26331 3.75863 3.79009 2.48686 4.72777 1.54918C5.66545 0.611501 6.93722 0.0847168 8.26331 0.0847168C8.91992 0.0847168 9.57009 0.214046 10.1767 0.465319C10.7834 0.716593 11.3345 1.08489 11.7988 1.54918C12.2631 2.01348 12.6314 2.56467 12.8827 3.1713C13.134 3.77793 13.2633 4.42811 13.2633 5.08472V7.08472H14.2633ZM8.26331 2.08472C7.46766 2.08472 6.70459 2.40079 6.14198 2.9634C5.57938 3.52601 5.26331 4.28907 5.26331 5.08472V7.08472H11.2633V5.08472C11.2633 4.28907 10.9472 3.52601 10.3846 2.9634C9.82202 2.40079 9.05896 2.08472 8.26331 2.08472Z" fill="#AD4C4C"/>
</svg>
